<?xml version="1.0" standalone="no"?>
<!DOCTYPE svg PUBLIC "-//W3C//DTD SVG 20010904//EN"
 "http://www.w3.org/TR/2001/REC-SVG-20010904/DTD/svg10.dtd">
<svg version="1.0" xmlns="http://www.w3.org/2000/svg"
 width="500.000000pt" height="500.000000pt" viewBox="0 0 500.000000 500.000000"
 preserveAspectRatio="xMidYMid meet">

<g transform="translate(0.000000,500.000000) scale(0.100000,-0.100000)"
fill="#000000" stroke="none">
<path d="M0 2500 l0 -2500 2500 0 2500 0 0 2500 0 2500 -2500 0 -2500 0 0
-2500z m2456 586 c200 -290 365 -531 368 -534 4 -3 6 1 6 10 0 8 -160 248
-355 532 -195 284 -355 519 -355 522 0 3 25 4 57 2 l56 -3 279 -405 c153 -223
302 -440 331 -482 l53 -76 340 484 339 484 57 0 57 0 -365 -521 c-201 -286
-364 -527 -362 -535 2 -9 172 225 378 520 l375 536 58 0 59 0 -35 -47 c-75
-104 -768 -1095 -770 -1102 -1 -4 161 -243 359 -532 199 -288 387 -561 419
-606 l56 -83 -59 0 -60 0 -387 565 c-213 311 -391 562 -396 559 -5 -3 5 -26
23 -52 119 -174 723 -1049 731 -1060 8 -10 -2 -12 -53 -10 l-63 3 -348 508
c-191 279 -351 508 -354 508 -4 0 -155 -212 -335 -470 l-329 -471 431 0 430 0
-7 -42 c-4 -24 -9 -46 -12 -50 -2 -5 -283 -8 -624 -8 l-619 0 0 1190 0 1190
55 0 55 0 0 -1140 c0 -1079 1 -1140 18 -1140 19 1 798 1114 796 1140 0 8 -175
268 -387 577 -213 309 -387 565 -387 568 0 3 25 5 56 3 l57 -3 363 -529z
m-783 54 c12 7 32 20 45 28 40 26 23 5 -20 -24 -68 -46 -68 -46 -62 -29 3 8 2
15 -2 15 -5 0 -22 12 -39 26 -29 24 -29 24 13 -2 39 -25 46 -26 65 -14z m66
-77 c2 -2 0 -3 -5 -3 -5 0 -22 12 -39 26 l-30 26 35 -23 c19 -12 37 -24 39
-26z m-124 27 c-3 -5 -16 -15 -28 -21 -19 -9 -19 -8 3 10 28 23 34 26 25 11z
m124 -233 c-2 -1 -13 -9 -24 -17 -19 -14 -19 -14 -6 3 7 9 18 17 24 17 6 0 8
-1 6 -3z m-49 -31 c0 -3 -15 -14 -32 -26 l-33 -22 30 26 c31 27 35 29 35 22z
m-80 -61 c-10 -12 -1 -15 62 -18 l73 -3 -90 -2 -90 -2 25 20 c30 23 37 25 20
5z m122 -137 c-8 -8 -9 -4 -5 13 4 13 8 18 11 10 2 -7 -1 -18 -6 -23z m-130 6
c-14 -10 -22 -25 -22 -45 0 -27 3 -29 35 -29 31 0 35 3 36 28 0 15 3 21 6 14
4 -10 11 -10 31 3 l27 16 -27 -23 c-16 -13 -28 -27 -28 -30 0 -4 19 -9 43 -11
23 -2 3 -4 -45 -5 l-88 -2 0 34 c0 34 21 66 43 66 6 0 1 -7 -11 -16z m106
-195 c-13 -7 -18 -23 -18 -54 0 -47 -5 -52 -30 -34 -13 9 -12 10 3 5 14 -4 17
1 17 34 0 33 -3 39 -17 35 -10 -3 -4 1 12 9 34 17 59 21 33 5z m-78 -29 c-8
-5 -19 -10 -25 -10 -5 0 -3 5 5 10 8 5 20 10 25 10 6 0 3 -5 -5 -10z m-40 -20
c0 -5 -4 -10 -10 -10 -5 0 -10 5 -10 10 0 6 5 10 10 10 6 0 10 -4 10 -10z m40
-20 c8 -5 11 -10 5 -10 -5 0 -17 5 -25 10 -8 5 -10 10 -5 10 6 0 17 -5 25 -10z
m100 -40 c8 -5 11 -10 5 -10 -5 0 -17 5 -25 10 -8 5 -10 10 -5 10 6 0 17 -5
25 -10z m-114 -170 c33 0 34 1 36 43 l1 42 4 -42 c4 -41 5 -43 38 -43 33 0 34
2 38 43 l4 42 1 -47 2 -48 -85 0 -85 0 2 48 1 47 4 -42 c4 -42 5 -43 39 -43z
m124 -135 l0 -45 -87 2 -88 2 83 3 82 4 0 39 c0 22 2 40 5 40 3 0 5 -20 5 -45z"/>
<path d="M2885 2471 c-3 -5 -1 -12 5 -16 5 -3 10 1 10 9 0 18 -6 21 -15 7z"/>
<path d="M2480 1889 c-189 -272 -355 -509 -368 -526 -17 -23 -20 -33 -11 -33
16 0 732 1026 727 1042 -2 5 -159 -212 -348 -483z"/>
</g>
</svg>
